# xmcd
#
# Track frame offsets: 
#        150
#        17493
#        39697
#        56394
#        74959
#        97142
#        107529
#        113522
#        137904
#
# Disc length: 2026 seconds
#
# Revision: 0
# Processed by: cddbd v1.5.2PL0 Copyright (c) Steve Scherf et al.
# Submitted via: ExactAudioCopyFreeDBPlugin 1.0
#
DISCID=7c07e809
DTITLE=Renata Rosa - Encantações
DYEAR=1900
DGENRE=
TTITLE0=Jurema
TTITLE1=Saudade do Futuro
TTITLE2=Cantar Ciranda
TTITLE3=Imbarabão
TTITLE4=Amei Demais
TTITLE5=Roda do Vento
TTITLE6=Encantações
TTITLE7=Marcha do Donzel
TTITLE8=Água nos Olhos
EXTD=
EXTT0=
EXTT1=
EXTT2=
EXTT3=
EXTT4=
EXTT5=
EXTT6=
EXTT7=
EXTT8=
PLAYORDER=
